# xmcd
#
# Track frame offsets:
#   150
#   14600
#   28328
#   41956
#   55213
#   73310
#   88070
#   101969
#   120065
#   135915
#   150627
#   165263
#   180958
#
# Disc length: 2645 seconds
#
# Revision: 0
# Processed by: cddbd v1.5.1PL0 Copyright (c) Steve Scherf et al.
# Submitted via: Media_Universe 3.0
#
DISCID=a70a530d
DTITLE=T. Graham Brown - Greatest Hits
DYEAR=2004
DGENRE=Country
TTITLE0=Hell And High Water
TTITLE1=I Tell It Like It Used To Be
TTITLE2=I Wish That I Could Hurt That Way Again
TTITLE3=Brilliant Conversationalist
TTITLE4=Don't Go To Strangers
TTITLE5=Darlene
TTITLE6=Come As You Were
TTITLE7=Old Rugged Cross
TTITLE8=Power Of Love
TTITLE9=Rock Of Ages
TTITLE10=She Couldn't Love Me Anymore
TTITLE11=The Last Resort
TTITLE12=Wine Into Water
EXTD=
EXTT0=
EXTT1=
EXTT2=
EXTT3=
EXTT4=
EXTT5=
EXTT6=
EXTT7=
EXTT8=
EXTT9=
EXTT10=
EXTT11=
EXTT12=
PLAYORDER=
